<?xml version="1.0" standalone="no"?>
<!DOCTYPE svg PUBLIC "-//W3C//DTD SVG 20010904//EN"
 "http://www.w3.org/TR/2001/REC-SVG-20010904/DTD/svg10.dtd">
<svg version="1.0" xmlns="http://www.w3.org/2000/svg"
 width="559.000000pt" height="800.000000pt" viewBox="0 0 559.000000 800.000000"
 preserveAspectRatio="xMidYMid meet">

<g transform="translate(0.000000,800.000000) scale(0.100000,-0.100000)"
fill="#000000" stroke="none">
<path d="M951 7956 c-37 -21 -130 -116 -171 -176 -88 -130 -120 -287 -85 -420
31 -119 79 -193 212 -330 151 -154 178 -199 178 -295 0 -87 -27 -139 -123
-237 -59 -60 -65 -71 -69 -115 -6 -62 14 -104 61 -127 68 -32 119 -13 203 78
110 118 167 235 180 363 8 85 -11 172 -58 271 -35 72 -58 102 -170 217 -90 93
-137 150 -154 187 -27 58 -32 124 -14 179 15 43 86 142 137 192 54 52 67 98
43 153 -30 66 -109 94 -170 60z"/>
<path d="M2320 7938 c-64 -48 -156 -162 -190 -234 -65 -136 -73 -254 -26 -392
31 -93 84 -166 216 -300 130 -132 160 -183 160 -278 0 -80 -31 -142 -121 -236
-38 -40 -72 -83 -76 -96 -17 -69 30 -146 96 -157 53 -9 88 8 159 78 153 151
220 329 187 492 -31 149 -77 223 -238 386 -132 134 -162 184 -162 274 0 80 28
135 120 235 79 86 93 119 75 173 -16 52 -52 79 -108 85 -42 4 -52 0 -92 -30z"/>
<path d="M3732 7950 c-91 -56 -206 -214 -241 -335 -20 -65 -23 -93 -18 -164 9
-161 61 -256 238 -437 136 -139 163 -185 163 -279 1 -79 -28 -137 -120 -236
-73 -77 -92 -117 -78 -161 13 -42 44 -76 80 -88 75 -25 149 22 253 160 101
134 137 272 108 415 -28 137 -70 206 -220 362 -73 76 -141 156 -152 178 -15
29 -20 60 -20 115 0 91 22 135 122 241 55 58 66 76 70 112 6 56 -9 93 -49 117
-42 25 -94 25 -136 0z"/>
<path d="M2168 5263 l-96 -4 -7 -82 c-3 -45 -5 -1211 -3 -2592 l3 -2510 335 0
335 0 6 225 c10 408 5 4938 -6 4948 -11 10 -407 20 -567 15z"/>
<path d="M675 5249 c-11 -17 -8 -5160 2 -5170 5 -5 149 -8 339 -7 l329 3 7 45
c8 57 10 5031 2 5094 l-7 46 -333 0 c-225 0 -335 -3 -339 -11z"/>
<path d="M3456 5208 c-9 -78 -7 -5111 2 -5126 7 -9 82 -12 343 -10 l334 3 8
1145 c4 630 4 1796 0 2590 l-8 1445 -336 3 -336 2 -7 -52z"/>
<path d="M91 4464 l-31 -26 0 -421 c1 -316 4 -426 13 -438 25 -32 56 -39 181
-39 118 0 127 1 153 24 l28 24 3 422 3 421 -30 29 -29 30 -130 0 c-126 0 -132
-1 -161 -26z"/>
<path d="M4748 4431 l-33 -29 -3 -256 -3 -255 26 -50 c38 -75 78 -115 153
-152 37 -19 71 -38 75 -44 5 -5 6 -462 4 -1015 -5 -1105 -2 -1039 -67 -1114
-57 -65 -69 -67 -313 -74 -272 -6 -261 -1 -255 -134 4 -75 8 -93 24 -105 16
-12 63 -14 265 -11 l245 3 78 38 c93 46 168 118 212 202 67 126 63 86 66 852
2 384 4 850 6 1035 l3 337 37 12 c54 18 116 63 151 111 56 76 62 119 59 383
l-3 237 -33 29 c-56 50 -161 35 -192 -28 -10 -20 -16 -87 -20 -241 -5 -210 -5
-214 -29 -233 -18 -15 -39 -19 -101 -19 -102 0 -127 10 -134 52 -3 18 -9 127
-13 243 l-8 209 -34 23 c-51 35 -121 32 -163 -6z"/>
<path d="M1564 4126 c-16 -13 -19 -27 -19 -111 0 -126 -1 -125 160 -125 161 0
159 -1 156 126 -1 78 -5 102 -18 112 -25 18 -253 17 -279 -2z"/>
<path d="M2957 4122 c-13 -14 -17 -39 -17 -109 0 -123 0 -123 162 -123 158 0
158 0 158 128 0 123 2 122 -159 122 -111 0 -130 -2 -144 -18z"/>
<path d="M105 1778 c-45 -26 -44 -23 -45 -465 l0 -421 32 -27 c31 -26 33 -26
164 -23 123 3 135 5 156 26 l23 23 0 425 0 426 -28 24 c-27 23 -35 24 -155 24
-77 0 -135 -5 -147 -12z"/>
<path d="M1564 1426 c-16 -13 -19 -27 -19 -111 0 -126 -1 -125 160 -125 82 0
127 4 138 13 21 16 28 197 8 221 -18 22 -257 23 -287 2z"/>
<path d="M2957 1422 c-13 -14 -17 -39 -17 -109 0 -123 0 -123 162 -123 158 0
158 0 158 128 0 123 2 122 -159 122 -111 0 -130 -2 -144 -18z"/>
</g>
</svg>
